<svg width="260" height="260" viewBox="0 0 260 260" fill="none" xmlns="http://www.w3.org/2000/svg">
<circle cx="130" cy="130" r="130" fill="white"/>
<path d="M67.2188 147V113.062H74.25V141.188H88.875V147H67.2188ZM123.141 130.031C123.141 141.094 116.25 147.469 107.297 147.469C98.25 147.469 91.4062 141.047 91.4062 130.031C91.4062 118.969 98.25 112.594 107.297 112.594C116.25 112.594 123.141 118.969 123.141 130.031ZM115.969 130.031C115.969 122.766 112.547 118.828 107.297 118.828C102.047 118.828 98.5781 122.766 98.5781 130.031C98.5781 137.297 102.047 141.234 107.297 141.234C112.547 141.234 115.969 137.297 115.969 130.031ZM150.75 123.984C149.812 120.797 147.234 118.828 143.531 118.828C138.281 118.828 134.719 122.859 134.719 129.984C134.719 137.156 138.188 141.234 143.578 141.234C148.43 141.234 151.312 138.492 151.406 134.203H144.047V128.906H158.203V133.125C158.203 142.031 152.109 147.469 143.531 147.469C134.016 147.469 127.547 140.812 127.547 130.078C127.547 119.062 134.438 112.594 143.391 112.594C151.031 112.594 156.938 117.281 157.875 123.984H150.75ZM194.438 130.031C194.438 141.094 187.547 147.469 178.594 147.469C169.547 147.469 162.703 141.047 162.703 130.031C162.703 118.969 169.547 112.594 178.594 112.594C187.547 112.594 194.438 118.969 194.438 130.031ZM187.266 130.031C187.266 122.766 183.844 118.828 178.594 118.828C173.344 118.828 169.875 122.766 169.875 130.031C169.875 137.297 173.344 141.234 178.594 141.234C183.844 141.234 187.266 137.297 187.266 130.031Z" fill="black"/>
</svg>
